<svg xmlns="http://www.w3.org/2000/svg"  viewBox="0 0 24 24" width="96px" height="96px"><path d="M20.814,9.395c-0.64-3.143-3.059-5.575-6.215-6.216C13.958,2.461,13.036,2,12,2C6.486,2,2,6.486,2,12 c0,1.016,0.155,1.997,0.438,2.921c0.001,0.001,0,0.003,0.001,0.004C3.693,19.016,7.504,22,12,22c0.067,0,0.131-0.009,0.198-0.01 C12.216,21.991,12.232,22,12.25,22c0.031,0,0.059-0.015,0.089-0.017C17.696,21.802,22,17.399,22,12 C22,10.961,21.536,10.036,20.814,9.395z M15.494,5.563c1.297,0.601,2.348,1.648,2.948,2.943C16.539,8.538,15,10.09,15,12 c0,1.654-1.346,3-3,3s-3-1.346-3-3c0-1.654,1.346-3,3-3C13.908,9,15.459,7.463,15.494,5.563z M12,4c0.828,0,1.5,0.671,1.5,1.5 S12.828,7,12,7c-0.228,0-0.882,0-1,0C8.352,7,6.299,7.806,4.896,9.394c-0.285,0.323-0.527,0.664-0.736,1.014 C4.901,6.757,8.134,4,12,4z M15.201,19.327c0.138-0.136,0.271-0.274,0.395-0.42C16.928,17.335,17,15,17,13c0-0.055,0-0.764,0-1 c0-0.828,0.672-1.5,1.5-1.5S20,11.172,20,12C20,15.273,18.022,18.089,15.201,19.327z"/></svg>